<?xml version="1.0" encoding="UTF-8"?>
<!DOCTYPE svg PUBLIC "-//W3C//DTD SVG 1.1//EN" "http://www.w3.org/Graphics/SVG/1.1/DTD/svg11.dtd">
<svg xmlns="http://www.w3.org/2000/svg" version="1.1" width="1920px" height="1080px" style="shape-rendering:geometricPrecision; text-rendering:geometricPrecision; image-rendering:optimizeQuality; fill-rule:evenodd; clip-rule:evenodd" xmlns:xlink="http://www.w3.org/1999/xlink">
<g><path style="opacity:1" fill="#000000" d="M -0.5,-0.5 C 639.5,-0.5 1279.5,-0.5 1919.5,-0.5C 1919.5,143.833 1919.5,288.167 1919.5,432.5C 1284.17,432.5 648.833,432.5 13.5,432.5C 13.5,487.5 13.5,542.5 13.5,597.5C 648.833,597.5 1284.17,597.5 1919.5,597.5C 1919.5,758.167 1919.5,918.833 1919.5,1079.5C 1279.5,1079.5 639.5,1079.5 -0.5,1079.5C -0.5,719.5 -0.5,359.5 -0.5,-0.5 Z"/></g>
<g><path style="opacity:1" fill="#f8fff9" d="M 1919.5,432.5 C 1919.5,487.5 1919.5,542.5 1919.5,597.5C 1284.17,597.5 648.833,597.5 13.5,597.5C 13.5,542.5 13.5,487.5 13.5,432.5C 648.833,432.5 1284.17,432.5 1919.5,432.5 Z"/></g>
<g><path style="opacity:1" fill="#010101" d="M 24.5,443.5 C 652.5,443.5 1280.5,443.5 1908.5,443.5C 1908.5,491.167 1908.5,538.833 1908.5,586.5C 1280.5,586.5 652.5,586.5 24.5,586.5C 24.5,538.833 24.5,491.167 24.5,443.5 Z"/></g>
<g><path style="opacity:1" fill="#f4faf5" d="M 817.5,472.5 C 823.893,472.207 830.227,472.54 836.5,473.5C 837.495,479.128 837.829,484.794 837.5,490.5C 827.389,486.635 822.723,489.968 823.5,500.5C 827.833,500.5 832.167,500.5 836.5,500.5C 836.5,505.833 836.5,511.167 836.5,516.5C 832.167,516.5 827.833,516.5 823.5,516.5C 823.5,529.833 823.5,543.167 823.5,556.5C 815.5,556.5 807.5,556.5 799.5,556.5C 799.5,543.167 799.5,529.833 799.5,516.5C 796.5,516.5 793.5,516.5 790.5,516.5C 790.5,511.167 790.5,505.833 790.5,500.5C 793.5,500.5 796.5,500.5 799.5,500.5C 798.494,486.483 804.494,477.15 817.5,472.5 Z"/></g>
<g><path style="opacity:1" fill="#f0f6f1" d="M 619.5,472.5 C 624.167,472.5 628.833,472.5 633.5,472.5C 634.041,476.87 636.541,478.87 641,478.5C 645.459,478.87 647.959,476.87 648.5,472.5C 653.179,472.334 657.845,472.501 662.5,473C 658.918,488.31 649.251,494.31 633.5,491C 624.81,487.818 620.143,481.651 619.5,472.5 Z"/></g>
<g><path style="opacity:1" fill="#f4faf5" d="M 1055.5,473.5 C 1063.5,473.5 1071.5,473.5 1079.5,473.5C 1079.5,501.167 1079.5,528.833 1079.5,556.5C 1071.5,556.5 1063.5,556.5 1055.5,556.5C 1055.5,528.833 1055.5,501.167 1055.5,473.5 Z"/></g>
<g><path style="opacity:1" fill="#494c49" d="M 1782.5,473.5 C 1782.67,484.172 1782.5,494.839 1782,505.5C 1781.28,504.956 1780.78,504.289 1780.5,503.5C 1781.17,493.5 1781.83,483.5 1782.5,473.5 Z"/></g>
<g><path style="opacity:1" fill="#f6fcf7" d="M 1782.5,473.5 C 1790.17,473.5 1797.83,473.5 1805.5,473.5C 1805.5,501.167 1805.5,528.833 1805.5,556.5C 1797.83,556.5 1790.17,556.5 1782.5,556.5C 1782.8,554.396 1782.47,552.396 1781.5,550.5C 1775.13,556.784 1767.47,558.951 1758.5,557C 1746.75,551.508 1741.41,542.174 1742.5,529C 1742.79,507.707 1753.45,498.041 1774.5,500C 1776.69,500.926 1778.69,502.093 1780.5,503.5C 1780.78,504.289 1781.28,504.956 1782,505.5C 1782.5,494.839 1782.67,484.172 1782.5,473.5 Z"/></g>
<g><path style="opacity:1" fill="#f5fbf6" d="M 71.5,476.5 C 104.204,476.562 119.037,492.896 116,525.5C 108.988,550.459 92.4881,560.959 66.5,557C 43.0985,548.036 33.9318,531.203 39,506.5C 44.0031,489.99 54.8365,479.99 71.5,476.5 Z"/></g>
<g><path style="opacity:1" fill="#f5fbf6" d="M 363.5,477.5 C 379.833,477.5 396.167,477.5 412.5,477.5C 412.5,483.833 412.5,490.167 412.5,496.5C 404.167,496.5 395.833,496.5 387.5,496.5C 387.5,501.167 387.5,505.833 387.5,510.5C 395.167,510.5 402.833,510.5 410.5,510.5C 410.5,516.833 410.5,523.167 410.5,529.5C 402.833,529.5 395.167,529.5 387.5,529.5C 387.5,538.5 387.5,547.5 387.5,556.5C 379.5,556.5 371.5,556.5 363.5,556.5C 363.5,530.167 363.5,503.833 363.5,477.5 Z"/></g>
<g><path style="opacity:1" fill="#f7fdf8" d="M 910.5,478.5 C 925.17,478.333 939.837,478.5 954.5,479C 973.411,481.517 978.745,491.184 970.5,508C 967.058,511.054 963.058,513.054 958.5,514C 976.601,519.03 981.435,529.863 973,546.5C 969.279,550.551 964.779,553.384 959.5,555C 943.21,556.406 926.876,556.906 910.5,556.5C 910.5,530.5 910.5,504.5 910.5,478.5 Z"/></g>
<g><path style="opacity:1" fill="#f5fbf6" d="M 532.5,516.5 C 528.5,516.5 524.5,516.5 520.5,516.5C 520.176,523.354 520.509,530.021 521.5,536.5C 521.511,538.017 522.177,539.184 523.5,540C 526.23,540.728 528.897,540.562 531.5,539.5C 532.806,545.054 532.806,550.554 531.5,556C 524.567,557.506 517.567,557.839 510.5,557C 503.903,554.333 499.737,549.5 498,542.5C 497.5,533.84 497.334,525.173 497.5,516.5C 494.5,516.5 491.5,516.5 488.5,516.5C 488.5,511.167 488.5,505.833 488.5,500.5C 491.5,500.5 494.5,500.5 497.5,500.5C 497.207,496.563 497.54,492.73 498.5,489C 505.774,486.848 513.108,485.015 520.5,483.5C 520.5,489.167 520.5,494.833 520.5,500.5C 524.5,500.5 528.5,500.5 532.5,500.5C 532.5,505.833 532.5,511.167 532.5,516.5 Z"/></g>
<g><path style="opacity:1" fill="#f6fcf7" d="M 1659.5,483.5 C 1660.83,483.5 1662.17,483.5 1663.5,483.5C 1663.5,489.167 1663.5,494.833 1663.5,500.5C 1667.17,500.5 1670.83,500.5 1674.5,500.5C 1674.5,505.833 1674.5,511.167 1674.5,516.5C 1670.83,516.5 1667.17,516.5 1663.5,516.5C 1663.33,523.508 1663.5,530.508 1664,537.5C 1664.37,538.416 1664.87,539.25 1665.5,540C 1668.23,540.728 1670.9,540.562 1673.5,539.5C 1674.5,545.128 1674.83,550.794 1674.5,556.5C 1665.67,558.24 1657,557.74 1648.5,555C 1644.35,552.197 1641.85,548.364 1641,543.5C 1640.5,534.506 1640.33,525.506 1640.5,516.5C 1637.5,516.5 1634.5,516.5 1631.5,516.5C 1631.5,511.167 1631.5,505.833 1631.5,500.5C 1634.5,500.5 1637.5,500.5 1640.5,500.5C 1640.21,496.563 1640.54,492.73 1641.5,489C 1647.64,487.227 1653.64,485.394 1659.5,483.5 Z"/></g>
<g><path style="opacity:1" fill="#7a7e7b" d="M 941.5,494.5 C 939.167,494.5 936.833,494.5 934.5,494.5C 934.5,499.167 934.5,503.833 934.5,508.5C 933.513,503.695 933.179,498.695 933.5,493.5C 936.385,493.194 939.052,493.527 941.5,494.5 Z"/></g>
<g><path style="opacity:1" fill="#030403" d="M 941.5,494.5 C 948.088,494.657 950.588,497.99 949,504.5C 947.786,506.049 946.286,507.215 944.5,508C 941.183,508.498 937.85,508.665 934.5,508.5C 934.5,503.833 934.5,499.167 934.5,494.5C 936.833,494.5 939.167,494.5 941.5,494.5 Z"/></g>
<g><path style="opacity:1" fill="#030303" d="M 71.5,497.5 C 81.347,495.338 87.847,499.005 91,508.5C 92.5259,517.333 91.1925,525.666 87,533.5C 76.5626,540.454 68.8959,538.12 64,526.5C 63.3333,520.167 63.3333,513.833 64,507.5C 65.9789,503.7 68.4789,500.366 71.5,497.5 Z"/></g>
<g><path style="opacity:1" fill="#f8fef9" d="M 294.5,499.5 C 299.913,499.229 305.246,499.729 310.5,501C 314.039,502.907 316.539,505.74 318,509.5C 319.453,525.096 319.953,540.762 319.5,556.5C 311.833,556.5 304.167,556.5 296.5,556.5C 296.667,544.495 296.5,532.495 296,520.5C 293.947,516.708 290.781,515.542 286.5,517C 285.789,518.255 284.956,519.421 284,520.5C 283.5,532.495 283.333,544.495 283.5,556.5C 275.833,556.5 268.167,556.5 260.5,556.5C 260.5,537.833 260.5,519.167 260.5,500.5C 268.167,500.5 275.833,500.5 283.5,500.5C 283.336,503.187 283.503,505.854 284,508.5C 287.078,504.915 290.578,501.915 294.5,499.5 Z"/></g>
<g><path style="opacity:1" fill="#f5faf5" d="M 441.5,499.5 C 449.571,499.137 457.571,499.637 465.5,501C 482.68,509.193 488.18,522.36 482,540.5C 475.634,552.771 465.467,558.437 451.5,557.5C 426.113,555.932 415.947,542.599 421,517.5C 425.232,508.429 432.065,502.429 441.5,499.5 Z"/></g>
<g><path style="opacity:1" fill="#f5fbf6" d="M 559.5,499.5 C 573.47,496.78 585.637,500.113 596,509.5C 600.148,514.778 601.981,520.778 601.5,527.5C 600.49,548.21 589.49,558.21 568.5,557.5C 548.368,557.604 538.035,547.604 537.5,527.5C 538.147,512.858 545.48,503.525 559.5,499.5 Z"/></g>
<g><path style="opacity:1" fill="#f6fcf7" d="M 647.5,556.5 C 648.629,554.372 648.796,552.039 648,549.5C 647.283,550.044 646.783,550.711 646.5,551.5C 639.113,557.543 630.78,559.043 621.5,556C 611.976,549.785 607.643,540.952 608.5,529.5C 608.88,506.604 620.213,497.104 642.5,501C 645,502.167 646.833,504 648,506.5C 648.495,504.527 648.662,502.527 648.5,500.5C 656.167,500.5 663.833,500.5 671.5,500.5C 671.667,519.17 671.5,537.836 671,556.5C 668.149,570.018 659.982,578.185 646.5,581C 636.087,583.143 625.753,582.976 615.5,580.5C 614.167,574.5 614.167,568.5 615.5,562.5C 624.806,567.514 634.14,567.681 643.5,563C 645.734,561.362 647.067,559.195 647.5,556.5 Z"/></g>
<g><path style="opacity:1" fill="#f5fbf6" d="M 746.5,499.5 C 754.228,499.189 761.895,499.689 769.5,501C 777.268,503.773 781.768,509.273 783,517.5C 783.5,530.496 783.667,543.496 783.5,556.5C 776.5,556.5 769.5,556.5 762.5,556.5C 762.664,553.813 762.497,551.146 762,548.5C 756.257,556.776 748.424,559.61 738.5,557C 729.757,551.999 726.59,544.499 729,534.5C 731.667,527.903 736.5,523.737 743.5,522C 749.926,521.239 756.26,520.073 762.5,518.5C 760.258,514.712 756.925,513.046 752.5,513.5C 746.071,513.652 740.071,515.319 734.5,518.5C 733.338,513.533 733.171,508.533 734,503.5C 738.239,502.096 742.406,500.762 746.5,499.5 Z"/></g>
<g><path style="opacity:1" fill="#f6fcf7" d="M 1194.5,499.5 C 1208.91,496.606 1217.41,502.273 1220,516.5C 1220.5,529.829 1220.67,543.163 1220.5,556.5C 1212.5,556.5 1204.5,556.5 1196.5,556.5C 1196.67,544.162 1196.5,531.829 1196,519.5C 1191.52,515.239 1187.52,515.572 1184,520.5C 1183.5,532.495 1183.33,544.495 1183.5,556.5C 1175.83,556.5 1168.17,556.5 1160.5,556.5C 1160.5,537.833 1160.5,519.167 1160.5,500.5C 1168.17,500.5 1175.83,500.5 1183.5,500.5C 1183.34,503.187 1183.5,505.854 1184,508.5C 1187.1,504.886 1190.6,501.886 1194.5,499.5 Z"/></g>
<g><path style="opacity:1" fill="#f5fbf6" d="M 1253.5,500.5 C 1253.34,503.518 1253.5,506.518 1254,509.5C 1254.72,508.956 1255.22,508.289 1255.5,507.5C 1262.52,499.462 1271.19,497.295 1281.5,501C 1284.67,502.833 1287.17,505.333 1289,508.5C 1297.18,499.12 1307.01,496.953 1318.5,502C 1322.26,505.421 1324.76,509.588 1326,514.5C 1326.5,528.496 1326.67,542.496 1326.5,556.5C 1318.5,556.5 1310.5,556.5 1302.5,556.5C 1302.67,543.829 1302.5,531.162 1302,518.5C 1299.5,516.522 1296.67,516.022 1293.5,517C 1292.3,517.903 1291.47,519.069 1291,520.5C 1290.5,532.495 1290.33,544.495 1290.5,556.5C 1282.5,556.5 1274.5,556.5 1266.5,556.5C 1266.67,544.495 1266.5,532.495 1266,520.5C 1264.31,516.787 1261.48,515.621 1257.5,517C 1255.95,518.214 1254.78,519.714 1254,521.5C 1253.5,533.162 1253.33,544.829 1253.5,556.5C 1245.83,556.5 1238.17,556.5 1230.5,556.5C 1230.5,537.833 1230.5,519.167 1230.5,500.5C 1238.17,500.5 1245.83,500.5 1253.5,500.5 Z"/></g>
<g><path style="opacity:1" fill="#f3f9f4" d="M 1350.5,499.5 C 1357.51,499.334 1364.51,499.5 1371.5,500C 1381.78,501.944 1387.61,508.111 1389,518.5C 1389.5,531.162 1389.67,543.829 1389.5,556.5C 1382.17,556.5 1374.83,556.5 1367.5,556.5C 1367.66,554.143 1367.5,551.81 1367,549.5C 1360.85,556.993 1353.02,559.493 1343.5,557C 1334.11,551.177 1331.28,543.011 1335,532.5C 1338.29,526.933 1343.12,523.433 1349.5,522C 1355.46,520.838 1361.46,520.005 1367.5,519.5C 1367.55,516.708 1366.21,514.875 1363.5,514C 1354.93,512.645 1346.93,514.145 1339.5,518.5C 1338.17,513.5 1338.17,508.5 1339.5,503.5C 1343.22,501.998 1346.89,500.665 1350.5,499.5 Z"/></g>
<g><path style="opacity:1" fill="#f5fbf6" d="M 1422.5,500.5 C 1422.34,503.518 1422.5,506.518 1423,509.5C 1423.72,508.956 1424.22,508.289 1424.5,507.5C 1431.56,499.557 1440.23,497.391 1450.5,501C 1453.65,502.978 1456.31,505.478 1458.5,508.5C 1466.37,499.093 1476.04,496.927 1487.5,502C 1491.64,504.796 1494.14,508.629 1495,513.5C 1495.5,527.829 1495.67,542.163 1495.5,556.5C 1487.83,556.5 1480.17,556.5 1472.5,556.5C 1472.67,544.495 1472.5,532.495 1472,520.5C 1469.95,516.708 1466.78,515.542 1462.5,517C 1461.3,517.903 1460.47,519.069 1460,520.5C 1459.5,532.495 1459.33,544.495 1459.5,556.5C 1451.5,556.5 1443.5,556.5 1435.5,556.5C 1435.67,544.162 1435.5,531.829 1435,519.5C 1432.83,516.713 1430,515.88 1426.5,517C 1425.3,517.903 1424.47,519.069 1424,520.5C 1423.5,532.495 1423.33,544.495 1423.5,556.5C 1415.5,556.5 1407.5,556.5 1399.5,556.5C 1399.5,537.833 1399.5,519.167 1399.5,500.5C 1407.17,500.5 1414.83,500.5 1422.5,500.5 Z"/></g>
<g><path style="opacity:1" fill="#f5fbf6" d="M 1519.5,499.5 C 1527.9,499.13 1536.24,499.63 1544.5,501C 1552.32,503.813 1556.82,509.313 1558,517.5C 1558.5,530.496 1558.67,543.496 1558.5,556.5C 1551.5,556.5 1544.5,556.5 1537.5,556.5C 1537.66,553.813 1537.5,551.146 1537,548.5C 1530.46,557.232 1521.96,559.732 1511.5,556C 1505.42,552.451 1502.75,547.118 1503.5,540C 1503.69,530.132 1508.69,524.132 1518.5,522C 1524.49,521.056 1530.49,520.223 1536.5,519.5C 1536.7,517.61 1536.04,516.11 1534.5,515C 1525.69,512.376 1517.36,513.542 1509.5,518.5C 1508.34,513.533 1508.17,508.533 1509,503.5C 1512.55,502.042 1516.05,500.708 1519.5,499.5 Z"/></g>
<g><path style="opacity:1" fill="#f5fbf6" d="M 1713.5,556.5 C 1713.81,553.753 1713.48,551.086 1712.5,548.5C 1711.89,548.624 1711.56,548.957 1711.5,549.5C 1710.09,552.56 1707.75,554.726 1704.5,556C 1685.4,560.226 1677.23,552.726 1680,533.5C 1682.8,527.175 1687.63,523.341 1694.5,522C 1700.49,521.056 1706.49,520.223 1712.5,519.5C 1712.7,517.61 1712.04,516.11 1710.5,515C 1701.69,512.376 1693.36,513.542 1685.5,518.5C 1684.2,513.281 1684.2,508.114 1685.5,503C 1695.57,499.662 1705.91,498.662 1716.5,500C 1726.33,501.833 1732.17,507.667 1734,517.5C 1734.5,530.496 1734.67,543.496 1734.5,556.5C 1727.5,556.5 1720.5,556.5 1713.5,556.5 Z"/></g>
<g><path style="opacity:1" fill="#f5fbf6" d="M 119.5,500.5 C 128.167,500.5 136.833,500.5 145.5,500.5C 147.703,512.647 150.537,524.647 154,536.5C 156.835,524.493 159.668,512.493 162.5,500.5C 170.196,500.169 177.862,500.503 185.5,501.5C 177.295,524.283 168.795,546.95 160,569.5C 154.044,578.728 145.544,583.062 134.5,582.5C 130.471,582.68 126.638,582.014 123,580.5C 122.333,574.5 122.333,568.5 123,562.5C 128.063,566.134 133.397,566.467 139,563.5C 140.167,561.167 141.333,558.833 142.5,556.5C 134.436,537.971 126.77,519.304 119.5,500.5 Z"/></g>
<g><path style="opacity:1" fill="#f5fbf6" d="M 189.5,500.5 C 197.167,500.5 204.833,500.5 212.5,500.5C 212.333,512.505 212.5,524.505 213,536.5C 215.053,540.292 218.219,541.458 222.5,540C 223.701,539.097 224.535,537.931 225,536.5C 225.5,524.505 225.667,512.505 225.5,500.5C 233.5,500.5 241.5,500.5 249.5,500.5C 249.5,519.167 249.5,537.833 249.5,556.5C 241.5,556.5 233.5,556.5 225.5,556.5C 225.664,553.813 225.497,551.146 225,548.5C 217.627,557.78 208.46,559.946 197.5,555C 193.743,551.579 191.243,547.412 190,542.5C 189.5,528.504 189.333,514.504 189.5,500.5 Z"/></g>
<g><path style="opacity:1" fill="#f5fbf6" d="M 705.5,500.5 C 705.335,503.85 705.502,507.183 706,510.5C 707.039,509.756 707.539,508.756 707.5,507.5C 711.476,501.347 717.142,498.68 724.5,499.5C 724.666,506.508 724.5,513.508 724,520.5C 719.921,519.371 715.755,519.204 711.5,520C 709.622,521.543 708.122,523.376 707,525.5C 706.5,535.828 706.334,546.161 706.5,556.5C 698.5,556.5 690.5,556.5 682.5,556.5C 682.5,537.833 682.5,519.167 682.5,500.5C 690.167,500.5 697.833,500.5 705.5,500.5 Z"/></g>
<g><path style="opacity:1" fill="#808480" d="M 705.5,500.5 C 706.167,502.833 706.833,505.167 707.5,507.5C 707.539,508.756 707.039,509.756 706,510.5C 705.502,507.183 705.335,503.85 705.5,500.5 Z"/></g>
<g><path style="opacity:1" fill="#f8fff9" d="M 842.5,500.5 C 850.167,500.5 857.833,500.5 865.5,500.5C 865.5,519.167 865.5,537.833 865.5,556.5C 857.833,556.5 850.167,556.5 842.5,556.5C 842.5,537.833 842.5,519.167 842.5,500.5 Z"/></g>
<g><path style="opacity:1" fill="#f6fcf7" d="M 1021.5,556.5 C 1021.81,553.753 1021.48,551.086 1020.5,548.5C 1019.89,548.624 1019.56,548.957 1019.5,549.5C 1013.57,556.743 1005.91,559.243 996.5,557C 989.973,553.459 986.14,547.959 985,540.5C 984.5,527.171 984.333,513.837 984.5,500.5C 992.5,500.5 1000.5,500.5 1008.5,500.5C 1008.33,512.505 1008.5,524.505 1009,536.5C 1011.69,540.977 1015.19,541.644 1019.5,538.5C 1020.15,536.885 1020.65,535.218 1021,533.5C 1021.5,522.505 1021.67,511.505 1021.5,500.5C 1029.17,500.5 1036.83,500.5 1044.5,500.5C 1044.5,519.167 1044.5,537.833 1044.5,556.5C 1036.83,556.5 1029.17,556.5 1021.5,556.5 Z"/></g>
<g><path style="opacity:1" fill="#f6fcf7" d="M 1089.5,500.5 C 1097.17,500.5 1104.83,500.5 1112.5,500.5C 1112.33,512.505 1112.5,524.505 1113,536.5C 1115.05,540.292 1118.22,541.458 1122.5,540C 1123.7,539.097 1124.53,537.931 1125,536.5C 1125.5,524.505 1125.67,512.505 1125.5,500.5C 1133.5,500.5 1141.5,500.5 1149.5,500.5C 1149.5,519.167 1149.5,537.833 1149.5,556.5C 1141.5,556.5 1133.5,556.5 1125.5,556.5C 1125.66,553.813 1125.5,551.146 1125,548.5C 1119.16,556.451 1111.32,559.284 1101.5,557C 1094.6,553.723 1090.77,548.223 1090,540.5C 1089.5,527.171 1089.33,513.837 1089.5,500.5 Z"/></g>
<g><path style="opacity:1" fill="#505350" d="M 1253.5,500.5 C 1254.17,502.833 1254.83,505.167 1255.5,507.5C 1255.22,508.289 1254.72,508.956 1254,509.5C 1253.5,506.518 1253.34,503.518 1253.5,500.5 Z"/></g>
<g><path style="opacity:1" fill="#8d928e" d="M 1422.5,500.5 C 1423.17,502.833 1423.83,505.167 1424.5,507.5C 1424.22,508.289 1423.72,508.956 1423,509.5C 1422.5,506.518 1422.34,503.518 1422.5,500.5 Z"/></g>
<g><path style="opacity:1" fill="#f4faf5" d="M 1568.5,473.5 C 1576.5,473.5 1584.5,473.5 1592.5,473.5C 1592.33,490.837 1592.5,508.17 1593,525.5C 1596.37,517.26 1599.87,509.093 1603.5,501C 1612.19,500.168 1620.85,500.335 1629.5,501.5C 1624.56,509.709 1619.9,518.042 1615.5,526.5C 1620.23,536.287 1625.23,545.954 1630.5,555.5C 1621.83,556.833 1613.17,556.833 1604.5,555.5C 1600.94,546.716 1597.11,538.049 1593,529.5C 1592.5,538.494 1592.33,547.494 1592.5,556.5C 1584.5,556.5 1576.5,556.5 1568.5,556.5C 1568.5,528.833 1568.5,501.167 1568.5,473.5 Z"/></g>
<g><path style="opacity:1" fill="#f4faf5" d="M 1816.5,500.5 C 1824.5,500.5 1832.5,500.5 1840.5,500.5C 1840.5,519.167 1840.5,537.833 1840.5,556.5C 1832.5,556.5 1824.5,556.5 1816.5,556.5C 1816.5,537.833 1816.5,519.167 1816.5,500.5 Z"/></g>
<g><path style="opacity:1" fill="#f7fdf8" d="M 1884.5,499.5 C 1887.5,499.5 1890.5,499.5 1893.5,499.5C 1893.67,506.508 1893.5,513.508 1893,520.5C 1888.92,519.371 1884.75,519.204 1880.5,520C 1877.62,521.251 1875.79,523.417 1875,526.5C 1874.5,536.494 1874.33,546.494 1874.5,556.5C 1866.83,556.5 1859.17,556.5 1851.5,556.5C 1851.5,537.833 1851.5,519.167 1851.5,500.5C 1859.17,500.5 1866.83,500.5 1874.5,500.5C 1874.34,503.518 1874.5,506.518 1875,509.5C 1877.02,504.98 1880.19,501.647 1884.5,499.5 Z"/></g>
<g><path style="opacity:1" fill="#070707" d="M 447.5,516.5 C 452.946,515.339 457.113,517.006 460,521.5C 460.667,525.833 460.667,530.167 460,534.5C 457.983,539.924 454.15,541.758 448.5,540C 446.667,539.5 445.5,538.333 445,536.5C 442.321,529.237 443.155,522.57 447.5,516.5 Z"/></g>
<g><path style="opacity:1" fill="#070807" d="M 565.5,516.5 C 571.489,515.065 575.655,517.065 578,522.5C 579.702,529.245 578.202,535.078 573.5,540C 569.409,541.227 565.909,540.394 563,537.5C 561.483,531.92 561.149,526.253 562,520.5C 563.376,519.295 564.542,517.962 565.5,516.5 Z"/></g>
<g><path style="opacity:1" fill="#0a0a0a" d="M 636.5,516.5 C 642.156,515.243 645.989,517.243 648,522.5C 648.726,527.239 648.393,531.905 647,536.5C 644.037,540.479 640.204,541.479 635.5,539.5C 629.956,531.537 630.29,523.87 636.5,516.5 Z"/></g>
<g><path style="opacity:1" fill="#050505" d="M 1771.5,516.5 C 1776.44,515.352 1779.94,517.019 1782,521.5C 1783.04,527.394 1782.37,533.061 1780,538.5C 1773.95,542.176 1769.62,540.843 1767,534.5C 1765.22,527.481 1766.72,521.481 1771.5,516.5 Z"/></g>
<g><path style="opacity:1" fill="#3e413f" d="M 532.5,516.5 C 529.038,517.482 525.371,517.815 521.5,517.5C 521.5,523.833 521.5,530.167 521.5,536.5C 520.509,530.021 520.176,523.354 520.5,516.5C 524.5,516.5 528.5,516.5 532.5,516.5 Z"/></g>
<g><path style="opacity:1" fill="#080808" d="M 934.5,524.5 C 938.846,524.334 943.179,524.501 947.5,525C 954.284,530.43 953.95,535.43 946.5,540C 942.514,540.499 938.514,540.666 934.5,540.5C 934.5,535.167 934.5,529.833 934.5,524.5 Z"/></g>
<g><path style="opacity:1" fill="#0f100f" d="M 753.5,531.5 C 756.5,531.5 759.5,531.5 762.5,531.5C 763.069,539.568 759.402,543.068 751.5,542C 747.285,537.678 747.952,534.178 753.5,531.5 Z"/></g>
<g><path style="opacity:1" fill="#090909" d="M 1359.5,531.5 C 1362.17,531.5 1364.83,531.5 1367.5,531.5C 1368.18,539.658 1364.51,543.158 1356.5,542C 1353.22,537.155 1354.22,533.655 1359.5,531.5 Z"/></g>
<g><path style="opacity:1" fill="#090909" d="M 1528.5,531.5 C 1531.17,531.5 1533.83,531.5 1536.5,531.5C 1537.16,539.85 1533.49,543.183 1525.5,541.5C 1524.16,540.312 1523.49,538.812 1523.5,537C 1524.65,534.682 1526.32,532.849 1528.5,531.5 Z"/></g>
<g><path style="opacity:1" fill="#0b0b0b" d="M 1704.5,531.5 C 1707.17,531.5 1709.83,531.5 1712.5,531.5C 1713.13,539.709 1709.46,543.209 1701.5,542C 1699.56,539.847 1699.06,537.347 1700,534.5C 1701.65,533.601 1703.15,532.601 1704.5,531.5 Z"/></g>
<g><path style="opacity:1" fill="#555855" d="M 1019.5,549.5 C 1019.56,548.957 1019.89,548.624 1020.5,548.5C 1021.48,551.086 1021.81,553.753 1021.5,556.5C 1020.83,554.167 1020.17,551.833 1019.5,549.5 Z"/></g>
<g><path style="opacity:1" fill="#838784" d="M 1711.5,549.5 C 1711.56,548.957 1711.89,548.624 1712.5,548.5C 1713.48,551.086 1713.81,553.753 1713.5,556.5C 1712.83,554.167 1712.17,551.833 1711.5,549.5 Z"/></g>
<g><path style="opacity:1" fill="#656966" d="M 647.5,556.5 C 647.784,554.585 647.451,552.919 646.5,551.5C 646.783,550.711 647.283,550.044 648,549.5C 648.796,552.039 648.629,554.372 647.5,556.5 Z"/></g>
<g><path style="opacity:1" fill="#6a6d6a" d="M 819.5,604.5 C 820.167,609.167 820.833,613.833 821.5,618.5C 821.217,619.289 820.717,619.956 820,620.5C 819.501,615.177 819.334,609.844 819.5,604.5 Z"/></g>
<g><path style="opacity:1" fill="#e4eae5" d="M 1023.5,604.5 C 1025.91,604.331 1028.08,604.997 1030,606.5C 1031.88,604.987 1034.05,604.321 1036.5,604.5C 1034.94,610.567 1031.27,612.067 1025.5,609C 1024.42,607.67 1023.75,606.17 1023.5,604.5 Z"/></g>
<g><path style="opacity:1" fill="#dce2dd" d="M 867.5,605.5 C 869.199,605.34 870.866,605.506 872.5,606C 873.517,607.049 873.684,608.216 873,609.5C 868.085,611.679 866.251,610.346 867.5,605.5 Z"/></g>
<g><path style="opacity:1" fill="#eff5f0" d="M 875.5,605.5 C 877.199,605.34 878.866,605.506 880.5,606C 881.995,609.841 880.661,611.174 876.5,610C 875.62,608.644 875.286,607.144 875.5,605.5 Z"/></g>
<g><path style="opacity:1" fill="#adb2ad" d="M 930.5,630.5 C 930.5,622.167 930.5,613.833 930.5,605.5C 928.5,605.5 926.5,605.5 924.5,605.5C 924.5,613.833 924.5,622.167 924.5,630.5C 923.507,622.016 923.174,613.349 923.5,604.5C 926.167,604.5 928.833,604.5 931.5,604.5C 931.826,613.349 931.493,622.016 930.5,630.5 Z"/></g>
<g><path style="opacity:1" fill="#f8fff9" d="M 930.5,630.5 C 928.5,630.5 926.5,630.5 924.5,630.5C 924.5,622.167 924.5,613.833 924.5,605.5C 926.5,605.5 928.5,605.5 930.5,605.5C 930.5,613.833 930.5,622.167 930.5,630.5 Z"/></g>
<g><path style="opacity:1" fill="#f6fcf7" d="M 966.5,604.5 C 968.833,604.5 971.167,604.5 973.5,604.5C 973.5,613.167 973.5,621.833 973.5,630.5C 971.167,630.5 968.833,630.5 966.5,630.5C 966.5,621.833 966.5,613.167 966.5,604.5 Z"/></g>
<g><path style="opacity:1" fill="#f2f8f3" d="M 988.5,604.5 C 990.833,604.5 993.167,604.5 995.5,604.5C 995.5,613.167 995.5,621.833 995.5,630.5C 992.606,630.958 990.106,630.291 988,628.5C 984.057,631.366 980.39,631.032 977,627.5C 976.333,624.167 976.333,620.833 977,617.5C 979.675,612.436 983.342,611.436 988,614.5C 988.498,611.183 988.665,607.85 988.5,604.5 Z"/></g>
<g><path style="opacity:1" fill="#e8eee9" d="M 1172.5,611.5 C 1171.83,611.5 1171.17,611.5 1170.5,611.5C 1167.49,610.644 1166.82,608.811 1168.5,606C 1170.5,605.333 1172.5,605.333 1174.5,606C 1176.18,608.811 1175.51,610.644 1172.5,611.5 Z"/></g>
<g><path style="opacity:1" fill="#f2f8f3" d="M 1205.5,611.5 C 1204.5,611.5 1203.5,611.5 1202.5,611.5C 1200.72,610.01 1200.05,608.01 1200.5,605.5C 1202.79,605.244 1204.96,605.577 1207,606.5C 1207.88,608.674 1207.38,610.341 1205.5,611.5 Z"/></g>
<g><path style="opacity:1" fill="#f0f6f1" d="M 553.5,606.5 C 557.351,605.971 560.851,606.638 564,608.5C 566.308,615.758 568.808,622.925 571.5,630C 568.518,630.498 565.518,630.665 562.5,630.5C 562.5,629.167 562.5,627.833 562.5,626.5C 559.753,626.187 557.086,626.52 554.5,627.5C 553.548,629.512 551.881,630.512 549.5,630.5C 548.167,630.333 546.833,630.167 545.5,630C 548.465,622.271 551.132,614.438 553.5,606.5 Z"/></g>
<g><path style="opacity:1" fill="#e4eae5" d="M 1263.5,607.5 C 1265.29,606.378 1267.29,606.211 1269.5,607C 1276.14,616.466 1276.14,625.966 1269.5,635.5C 1267.5,636.833 1265.5,636.833 1263.5,635.5C 1267.26,628.654 1268.42,621.321 1267,613.5C 1266.06,611.273 1264.89,609.273 1263.5,607.5 Z"/></g>
<g><path style="opacity:1" fill="#5d605d" d="M 698.5,613.5 C 701.654,612.033 704.654,612.366 707.5,614.5C 707.44,615.043 707.107,615.376 706.5,615.5C 704.132,613.777 701.466,613.11 698.5,613.5 Z"/></g>
<g><path style="opacity:1" fill="#606360" d="M 886.5,613.5 C 891.64,612.512 896.974,612.179 902.5,612.5C 902.784,614.415 902.451,616.081 901.5,617.5C 901.5,616.167 901.5,614.833 901.5,613.5C 896.5,613.5 891.5,613.5 886.5,613.5 Z"/></g>
<g><path style="opacity:1" fill="#5a5d5a" d="M 1064.5,613.5 C 1067.65,612.033 1070.65,612.366 1073.5,614.5C 1073.44,615.043 1073.11,615.376 1072.5,615.5C 1070.13,613.777 1067.47,613.11 1064.5,613.5 Z"/></g>
<g><path style="opacity:1" fill="#616461" d="M 1202.5,611.5 C 1203.5,611.5 1204.5,611.5 1205.5,611.5C 1206.17,612.167 1206.83,612.833 1207.5,613.5C 1205.17,613.5 1202.83,613.5 1200.5,613.5C 1201.17,612.833 1201.83,612.167 1202.5,611.5 Z"/></g>
<g><path style="opacity:1" fill="#eef4ef" d="M 583.5,612.5 C 586.755,612.014 589.422,613.014 591.5,615.5C 596.202,611.073 600.035,611.74 603,617.5C 603.499,621.821 603.666,626.154 603.5,630.5C 600.833,630.5 598.167,630.5 595.5,630.5C 595.5,626.5 595.5,622.5 595.5,618.5C 594.178,618.33 593.011,618.663 592,619.5C 591.501,623.152 591.335,626.818 591.5,630.5C 589.167,630.5 586.833,630.5 584.5,630.5C 584.5,626.5 584.5,622.5 584.5,618.5C 583.167,618.5 581.833,618.5 580.5,618.5C 580.5,622.5 580.5,626.5 580.5,630.5C 578.167,630.5 575.833,630.5 573.5,630.5C 573.5,624.833 573.5,619.167 573.5,613.5C 576.394,613.042 578.894,613.709 581,615.5C 582.045,614.627 582.878,613.627 583.5,612.5 Z"/></g>
<g><path style="opacity:1" fill="#ecf1ec" d="M 609.5,612.5 C 614.535,611.502 618.702,612.835 622,616.5C 622.499,621.155 622.666,625.821 622.5,630.5C 618.413,629.999 614.413,629.999 610.5,630.5C 605.849,629.807 604.349,627.141 606,622.5C 608.75,620.282 611.917,618.949 615.5,618.5C 612.832,617.262 610.166,617.262 607.5,618.5C 606.548,616.955 606.215,615.288 606.5,613.5C 607.791,613.737 608.791,613.404 609.5,612.5 Z"/></g>
<g><path style="opacity:1" fill="#ecf1ed" d="M 640.5,612.5 C 653.374,612.176 657.041,617.676 651.5,629C 646.558,631.121 641.725,630.954 637,628.5C 632.952,621.986 634.119,616.653 640.5,612.5 Z"/></g>
<g><path style="opacity:1" fill="#eef4ef" d="M 655.5,613.5 C 658.247,613.187 660.914,613.52 663.5,614.5C 664.488,617.45 665.321,620.45 666,623.5C 666.711,620.266 667.545,617.099 668.5,614C 670.902,613.186 673.235,613.353 675.5,614.5C 672.902,621.128 670.402,627.795 668,634.5C 664.96,637.966 661.126,639.3 656.5,638.5C 656.338,636.473 656.505,634.473 657,632.5C 659.493,633.946 661.327,633.279 662.5,630.5C 659.878,624.926 657.544,619.259 655.5,613.5 Z"/></g>
<g><path style="opacity:1" fill="#f5fbf6" d="M 684.5,623.5 C 685.077,625.652 686.244,625.985 688,624.5C 688.499,620.848 688.665,617.182 688.5,613.5C 690.833,613.5 693.167,613.5 695.5,613.5C 695.5,619.167 695.5,624.833 695.5,630.5C 690.068,629.789 684.734,629.623 679.5,630C 678.177,629.184 677.511,628.017 677.5,626.5C 677.5,622.167 677.5,617.833 677.5,613.5C 679.5,613.5 681.5,613.5 683.5,613.5C 683.187,617.042 683.521,620.375 684.5,623.5 Z"/></g>
<g><path style="opacity:1" fill="#e6ece7" d="M 698.5,613.5 C 701.466,613.11 704.132,613.777 706.5,615.5C 707.107,615.376 707.44,615.043 707.5,614.5C 710.293,611.914 713.126,611.914 716,614.5C 717.397,619.708 717.897,625.041 717.5,630.5C 714.833,630.5 712.167,630.5 709.5,630.5C 709.5,626.5 709.5,622.5 709.5,618.5C 708.5,618.5 707.5,618.5 706.5,618.5C 706.5,622.5 706.5,626.5 706.5,630.5C 703.833,630.5 701.167,630.5 698.5,630.5C 698.5,624.833 698.5,619.167 698.5,613.5 Z"/></g>
<g><path style="opacity:1" fill="#f6fcf7" d="M 720.5,613.5 C 722.833,613.5 725.167,613.5 727.5,613.5C 727.335,617.182 727.501,620.848 728,624.5C 729,625.833 730,625.833 731,624.5C 731.499,620.848 731.665,617.182 731.5,613.5C 733.833,613.5 736.167,613.5 738.5,613.5C 738.5,619.167 738.5,624.833 738.5,630.5C 735.606,630.958 733.106,630.291 731,628.5C 728.503,630.478 725.669,630.978 722.5,630C 721.874,629.25 721.374,628.416 721,627.5C 720.501,622.845 720.334,618.179 720.5,613.5 Z"/></g>
<g><path style="opacity:1" fill="#f4faf5" d="M 752.5,612.5 C 755.652,611.959 758.152,612.959 760,615.5C 760.499,620.489 760.666,625.489 760.5,630.5C 758.167,630.5 755.833,630.5 753.5,630.5C 753.5,626.5 753.5,622.5 753.5,618.5C 752.167,618.5 750.833,618.5 749.5,618.5C 749.5,622.5 749.5,626.5 749.5,630.5C 747.167,630.5 744.833,630.5 742.5,630.5C 742.5,624.833 742.5,619.167 742.5,613.5C 745.394,613.042 747.894,613.709 750,615.5C 751.045,614.627 751.878,613.627 752.5,612.5 Z"/></g>
<g><path style="opacity:1" fill="#e6ece7" d="M 779.5,612.5 C 782.167,612.5 784.833,612.5 787.5,612.5C 787.5,614.5 787.5,616.5 787.5,618.5C 781.338,617.156 779.338,619.322 781.5,625C 783.473,625.495 785.473,625.662 787.5,625.5C 787.5,627.167 787.5,628.833 787.5,630.5C 785.801,630.34 784.134,630.506 782.5,631C 786.769,636.629 785.102,639.129 777.5,638.5C 777.5,637.5 777.5,636.5 777.5,635.5C 778.675,635.719 779.675,635.386 780.5,634.5C 778.543,631.043 776.043,628.043 773,625.5C 771.671,619.278 773.837,614.945 779.5,612.5 Z"/></g>
<g><path style="opacity:1" fill="#eff5f0" d="M 796.5,612.5 C 806.535,612.032 810.702,616.698 809,626.5C 803,631.833 797,631.833 791,626.5C 789.018,620.083 790.851,615.416 796.5,612.5 Z"/></g>
<g><path style="opacity:1" fill="#f1f7f2" d="M 819.5,604.5 C 819.334,609.844 819.501,615.177 820,620.5C 820.717,619.956 821.217,619.289 821.5,618.5C 822.038,616.883 822.371,615.216 822.5,613.5C 825.518,613.335 828.518,613.502 831.5,614C 829.751,616.086 828.417,618.419 827.5,621C 828.697,623.894 830.03,626.727 831.5,629.5C 826.054,631.663 822.721,629.996 821.5,624.5C 821.217,623.711 820.717,623.044 820,622.5C 819.503,625.146 819.336,627.813 819.5,630.5C 817.167,630.5 814.833,630.5 812.5,630.5C 812.5,621.833 812.5,613.167 812.5,604.5C 814.833,604.5 817.167,604.5 819.5,604.5 Z"/></g>
<g><path style="opacity:1" fill="#eff5f0" d="M 847.5,612.5 C 850.044,612.104 852.211,612.771 854,614.5C 856.381,613.565 858.881,613.232 861.5,613.5C 861.884,620.589 861.384,627.589 860,634.5C 858.442,636.768 856.276,637.934 853.5,638C 850.183,638.498 846.85,638.665 843.5,638.5C 843.201,636.396 843.534,634.396 844.5,632.5C 848.829,634.455 852.162,633.455 854.5,629.5C 844.621,632.456 840.787,628.456 843,617.5C 844.025,615.313 845.525,613.646 847.5,612.5 Z"/></g>
<g><path style="opacity:1" fill="#f5fbf6" d="M 872.5,623.5 C 873.458,626.125 874.624,626.125 876,623.5C 876.498,620.183 876.665,616.85 876.5,613.5C 878.833,613.5 881.167,613.5 883.5,613.5C 883.5,619.167 883.5,624.833 883.5,630.5C 878.087,629.917 872.754,629.75 867.5,630C 866.177,629.184 865.511,628.017 865.5,626.5C 865.5,622.167 865.5,617.833 865.5,613.5C 867.5,613.5 869.5,613.5 871.5,613.5C 871.187,617.042 871.521,620.375 872.5,623.5 Z"/></g>
<g><path style="opacity:1" fill="#f3f9f4" d="M 886.5,613.5 C 891.5,613.5 896.5,613.5 901.5,613.5C 901.5,614.833 901.5,616.167 901.5,617.5C 899.629,620.061 897.629,622.561 895.5,625C 897.81,625.497 900.143,625.663 902.5,625.5C 902.5,627.167 902.5,628.833 902.5,630.5C 896.833,630.5 891.167,630.5 885.5,630.5C 886.642,626.068 888.975,622.235 892.5,619C 890.527,618.505 888.527,618.338 886.5,618.5C 886.5,616.833 886.5,615.167 886.5,613.5 Z"/></g>
<g><path style="opacity:1" fill="#e8eee9" d="M 921.5,623.5 C 917.774,623.177 914.107,623.511 910.5,624.5C 910.624,625.107 910.957,625.44 911.5,625.5C 913.802,626.822 916.135,626.822 918.5,625.5C 919.452,627.045 919.785,628.712 919.5,630.5C 915.033,630.867 910.7,630.367 906.5,629C 901.843,622.597 902.843,617.263 909.5,613C 917.736,611.739 921.736,615.239 921.5,623.5 Z"/></g>
<g><path style="opacity:1" fill="#ecf1ed" d="M 949.5,612.5 C 962.399,612.197 966.066,617.697 960.5,629C 955.558,631.121 950.725,630.954 946,628.5C 941.952,621.986 943.119,616.653 949.5,612.5 Z"/></g>
<g><path style="opacity:1" fill="#f0f5f1" d="M 1006.5,623.5 C 1006.82,625.048 1007.82,625.715 1009.5,625.5C 1009.5,621.5 1009.5,617.5 1009.5,613.5C 1012.17,613.5 1014.83,613.5 1017.5,613.5C 1017.5,619.167 1017.5,624.833 1017.5,630.5C 1012.07,629.789 1006.73,629.623 1001.5,630C 1000.18,629.184 999.511,628.017 999.5,626.5C 999.5,622.167 999.5,617.833 999.5,613.5C 1001.5,613.5 1003.5,613.5 1005.5,613.5C 1005.19,617.042 1005.52,620.375 1006.5,623.5 Z"/></g>
<g><path style="opacity:1" fill="#eff5f0" d="M 1025.5,612.5 C 1027.94,612.317 1030.1,612.984 1032,614.5C 1034.38,613.565 1036.88,613.232 1039.5,613.5C 1039.92,620.615 1039.42,627.615 1038,634.5C 1036.59,635.787 1035.09,636.954 1033.5,638C 1029.51,638.499 1025.51,638.666 1021.5,638.5C 1021.2,636.396 1021.53,634.396 1022.5,632.5C 1024.77,633.544 1027.1,633.711 1029.5,633C 1032.03,632.388 1032.87,630.888 1032,628.5C 1029.5,630.478 1026.67,630.978 1023.5,630C 1022.3,629.097 1021.47,627.931 1021,626.5C 1019.19,620.519 1020.69,615.852 1025.5,612.5 Z"/></g>
<g><path style="opacity:1" fill="#f6fcf7" d="M 1050.5,623.5 C 1051.05,625.552 1052.05,625.885 1053.5,624.5C 1054.48,621.038 1054.81,617.371 1054.5,613.5C 1056.83,613.5 1059.17,613.5 1061.5,613.5C 1061.5,619.167 1061.5,624.833 1061.5,630.5C 1057.08,630.061 1052.74,630.061 1048.5,630.5C 1046.06,630.714 1044.39,629.714 1043.5,627.5C 1043.5,622.833 1043.5,618.167 1043.5,613.5C 1045.5,613.5 1047.5,613.5 1049.5,613.5C 1049.19,617.042 1049.52,620.375 1050.5,623.5 Z"/></g>
<g><path style="opacity:1" fill="#737774" d="M 1061.5,613.5 C 1059.17,613.5 1056.83,613.5 1054.5,613.5C 1054.81,617.371 1054.48,621.038 1053.5,624.5C 1053.5,620.5 1053.5,616.5 1053.5,612.5C 1056.39,612.194 1059.05,612.527 1061.5,613.5 Z"/></g>
<g><path style="opacity:1" fill="#e7ede8" d="M 1064.5,613.5 C 1067.47,613.11 1070.13,613.777 1072.5,615.5C 1073.11,615.376 1073.44,615.043 1073.5,614.5C 1076.29,611.914 1079.13,611.914 1082,614.5C 1083.4,619.708 1083.9,625.041 1083.5,630.5C 1080.83,630.5 1078.17,630.5 1075.5,630.5C 1075.5,626.5 1075.5,622.5 1075.5,618.5C 1074.5,618.5 1073.5,618.5 1072.5,618.5C 1072.5,622.5 1072.5,626.5 1072.5,630.5C 1069.83,630.5 1067.17,630.5 1064.5,630.5C 1064.5,624.833 1064.5,619.167 1064.5,613.5 Z"/></g>
<g><path style="opacity:1" fill="#e9efea" d="M 1089.5,612.5 C 1094.54,611.502 1098.7,612.835 1102,616.5C 1102.5,621.155 1102.67,625.821 1102.5,630.5C 1098.52,630.03 1094.69,630.03 1091,630.5C 1085.91,630.151 1084.24,627.485 1086,622.5C 1088.75,620.282 1091.92,618.949 1095.5,618.5C 1093.17,617.276 1090.84,617.276 1088.5,618.5C 1087.23,616.194 1087.56,614.194 1089.5,612.5 Z"/></g>
<g><path style="opacity:1" fill="#e7ece8" d="M 1120.5,612.5 C 1128.78,611.624 1132.78,615.291 1132.5,623.5C 1128.82,623.335 1125.15,623.501 1121.5,624C 1123.74,626.614 1126.41,627.114 1129.5,625.5C 1130.45,627.045 1130.79,628.712 1130.5,630.5C 1126.82,630.665 1123.15,630.499 1119.5,630C 1114.93,627.459 1113.43,623.625 1115,618.5C 1116.36,615.977 1118.19,613.977 1120.5,612.5 Z"/></g>
<g><path style="opacity:1" fill="#888b88" d="M 1142.5,613.5 C 1140.17,613.5 1137.83,613.5 1135.5,613.5C 1135.5,619.167 1135.5,624.833 1135.5,630.5C 1134.51,624.69 1134.18,618.69 1134.5,612.5C 1137.39,612.194 1140.05,612.527 1142.5,613.5 Z"/></g>
<g><path style="opacity:1" fill="#f2f7f3" d="M 1135.5,630.5 C 1135.5,624.833 1135.5,619.167 1135.5,613.5C 1137.83,613.5 1140.17,613.5 1142.5,613.5C 1142.56,614.043 1142.89,614.376 1143.5,614.5C 1147.11,611.687 1150.45,612.021 1153.5,615.5C 1157.04,611.554 1160.54,611.554 1164,615.5C 1164.5,620.489 1164.67,625.489 1164.5,630.5C 1162.17,630.5 1159.83,630.5 1157.5,630.5C 1157.5,626.5 1157.5,622.5 1157.5,618.5C 1156.17,618.5 1154.83,618.5 1153.5,618.5C 1153.5,622.5 1153.5,626.5 1153.5,630.5C 1151.17,630.5 1148.83,630.5 1146.5,630.5C 1146.5,626.5 1146.5,622.5 1146.5,618.5C 1145.17,618.5 1143.83,618.5 1142.5,618.5C 1142.5,622.5 1142.5,626.5 1142.5,630.5C 1140.17,630.5 1137.83,630.5 1135.5,630.5 Z"/></g>
<g><path style="opacity:1" fill="#a6aaa6" d="M 1170.5,611.5 C 1171.17,611.5 1171.83,611.5 1172.5,611.5C 1173.21,612.404 1174.21,612.737 1175.5,612.5C 1175.82,618.69 1175.49,624.69 1174.5,630.5C 1174.5,624.833 1174.5,619.167 1174.5,613.5C 1172.5,613.5 1170.5,613.5 1168.5,613.5C 1168.5,619.167 1168.5,624.833 1168.5,630.5C 1167.51,624.69 1167.18,618.69 1167.5,612.5C 1168.79,612.737 1169.79,612.404 1170.5,611.5 Z"/></g>
<g><path style="opacity:1" fill="#f8fff9" d="M 1174.5,630.5 C 1172.5,630.5 1170.5,630.5 1168.5,630.5C 1168.5,624.833 1168.5,619.167 1168.5,613.5C 1170.5,613.5 1172.5,613.5 1174.5,613.5C 1174.5,619.167 1174.5,624.833 1174.5,630.5 Z"/></g>
<g><path style="opacity:1" fill="#edf3ee" d="M 1189.5,612.5 C 1192.78,612.269 1195.28,613.603 1197,616.5C 1197.5,621.155 1197.67,625.821 1197.5,630.5C 1194.83,630.5 1192.17,630.5 1189.5,630.5C 1189.5,626.5 1189.5,622.5 1189.5,618.5C 1188.18,618.33 1187.01,618.663 1186,619.5C 1185.5,623.152 1185.33,626.818 1185.5,630.5C 1183.17,630.5 1180.83,630.5 1178.5,630.5C 1178.5,624.833 1178.5,619.167 1178.5,613.5C 1181.39,613.042 1183.89,613.709 1186,615.5C 1187.15,614.364 1188.31,613.364 1189.5,612.5 Z"/></g>
<g><path style="opacity:1" fill="#f8fff9" d="M 1200.5,613.5 C 1202.83,613.5 1205.17,613.5 1207.5,613.5C 1207.5,619.167 1207.5,624.833 1207.5,630.5C 1205.17,630.5 1202.83,630.5 1200.5,630.5C 1200.5,624.833 1200.5,619.167 1200.5,613.5 Z"/></g>
<g><path style="opacity:1" fill="#878b88" d="M 1218.5,613.5 C 1216.17,613.5 1213.83,613.5 1211.5,613.5C 1211.5,619.167 1211.5,624.833 1211.5,630.5C 1210.51,624.69 1210.18,618.69 1210.5,612.5C 1213.39,612.194 1216.05,612.527 1218.5,613.5 Z"/></g>
<g><path style="opacity:1" fill="#f2f8f3" d="M 1211.5,630.5 C 1211.5,624.833 1211.5,619.167 1211.5,613.5C 1213.83,613.5 1216.17,613.5 1218.5,613.5C 1218.56,614.043 1218.89,614.376 1219.5,614.5C 1223.11,611.687 1226.45,612.021 1229.5,615.5C 1233.04,611.554 1236.54,611.554 1240,615.5C 1240.5,620.489 1240.67,625.489 1240.5,630.5C 1238.17,630.5 1235.83,630.5 1233.5,630.5C 1233.5,626.5 1233.5,622.5 1233.5,618.5C 1232.17,618.5 1230.83,618.5 1229.5,618.5C 1229.5,622.5 1229.5,626.5 1229.5,630.5C 1227.17,630.5 1224.83,630.5 1222.5,630.5C 1222.5,626.5 1222.5,622.5 1222.5,618.5C 1221.17,618.5 1219.83,618.5 1218.5,618.5C 1218.5,622.5 1218.5,626.5 1218.5,630.5C 1216.17,630.5 1213.83,630.5 1211.5,630.5 Z"/></g>
<g><path style="opacity:1" fill="#e6ece7" d="M 1254.5,613.5 C 1256.53,613.338 1258.53,613.505 1260.5,614C 1261.55,615.388 1261.72,616.888 1261,618.5C 1255.1,621.001 1252.93,619.334 1254.5,613.5 Z"/></g>
<g><path style="opacity:1" fill="#212221" d="M 557.5,613.5 C 559.536,615.206 560.536,617.539 560.5,620.5C 559.167,620.5 557.833,620.5 556.5,620.5C 556.674,618.139 557.007,615.806 557.5,613.5 Z"/></g>
<g><path style="opacity:1" fill="#040404" d="M 911.5,617.5 C 912.675,617.281 913.675,617.614 914.5,618.5C 912.948,619.798 911.948,619.465 911.5,617.5 Z"/></g>
<g><path style="opacity:1" fill="#040404" d="M 1122.5,617.5 C 1123.68,617.281 1124.68,617.614 1125.5,618.5C 1123.95,619.798 1122.95,619.465 1122.5,617.5 Z"/></g>
<g><path style="opacity:1" fill="#1c1c1c" d="M 642.5,618.5 C 645.233,618.196 646.899,619.363 647.5,622C 646.347,625.677 644.514,626.177 642,623.5C 641.36,621.735 641.527,620.068 642.5,618.5 Z"/></g>
<g><path style="opacity:1" fill="#090a09" d="M 798.5,618.5 C 802.473,619.075 803.473,621.242 801.5,625C 800.216,625.684 799.049,625.517 798,624.5C 797.322,622.402 797.489,620.402 798.5,618.5 Z"/></g>
<g><path style="opacity:1" fill="#151515" d="M 850.5,618.5 C 851.833,618.5 853.167,618.5 854.5,618.5C 854.662,620.527 854.495,622.527 854,624.5C 852.667,625.833 851.333,625.833 850,624.5C 849.322,622.402 849.489,620.402 850.5,618.5 Z"/></g>
<g><path style="opacity:1" fill="#1c1c1c" d="M 951.5,618.5 C 956.466,618.929 957.466,621.096 954.5,625C 953.216,625.684 952.049,625.517 951,624.5C 950.322,622.402 950.489,620.402 951.5,618.5 Z"/></g>
<g><path style="opacity:1" fill="#0f1010" d="M 984.5,618.5 C 988.473,619.075 989.473,621.242 987.5,625C 986.216,625.684 985.049,625.517 984,624.5C 983.322,622.402 983.489,620.402 984.5,618.5 Z"/></g>
<g><path style="opacity:1" fill="#868a87" d="M 1006.5,623.5 C 1005.52,620.375 1005.19,617.042 1005.5,613.5C 1003.5,613.5 1001.5,613.5 999.5,613.5C 999.5,617.833 999.5,622.167 999.5,626.5C 998.514,622.03 998.181,617.363 998.5,612.5C 1001.17,612.5 1003.83,612.5 1006.5,612.5C 1006.5,616.167 1006.5,619.833 1006.5,623.5 Z"/></g>
<g><path style="opacity:1" fill="#151515" d="M 1028.5,618.5 C 1029.83,618.5 1031.17,618.5 1032.5,618.5C 1032.66,620.527 1032.5,622.527 1032,624.5C 1030.67,625.833 1029.33,625.833 1028,624.5C 1027.32,622.402 1027.49,620.402 1028.5,618.5 Z"/></g>
<g><path style="opacity:1" fill="#828783" d="M 1050.5,623.5 C 1049.52,620.375 1049.19,617.042 1049.5,613.5C 1047.5,613.5 1045.5,613.5 1043.5,613.5C 1043.5,618.167 1043.5,622.833 1043.5,627.5C 1042.51,622.695 1042.18,617.695 1042.5,612.5C 1045.17,612.5 1047.83,612.5 1050.5,612.5C 1050.5,616.167 1050.5,619.833 1050.5,623.5 Z"/></g>
<g><path style="opacity:1" fill="#888c88" d="M 872.5,623.5 C 871.521,620.375 871.187,617.042 871.5,613.5C 869.5,613.5 867.5,613.5 865.5,613.5C 865.5,617.833 865.5,622.167 865.5,626.5C 864.514,622.03 864.181,617.363 864.5,612.5C 867.167,612.5 869.833,612.5 872.5,612.5C 872.5,616.167 872.5,619.833 872.5,623.5 Z"/></g>
<g><path style="opacity:1" fill="#868a86" d="M 684.5,623.5 C 683.521,620.375 683.187,617.042 683.5,613.5C 681.5,613.5 679.5,613.5 677.5,613.5C 677.5,617.833 677.5,622.167 677.5,626.5C 676.514,622.03 676.181,617.363 676.5,612.5C 679.167,612.5 681.833,612.5 684.5,612.5C 684.5,616.167 684.5,619.833 684.5,623.5 Z"/></g>
<g><path style="opacity:1" fill="#6a6d6a" d="M 821.5,624.5 C 820.833,626.5 820.167,628.5 819.5,630.5C 819.336,627.813 819.503,625.146 820,622.5C 820.717,623.044 821.217,623.711 821.5,624.5 Z"/></g>
<g><path style="opacity:1" fill="#2d2e2d" d="M 612.5,622.5 C 613.5,622.5 614.5,622.5 615.5,622.5C 615.426,626.541 614.093,627.208 611.5,624.5C 611.863,623.817 612.196,623.15 612.5,622.5 Z"/></g>
<g><path style="opacity:1" fill="#707471" d="M 921.5,623.5 C 918.167,624.167 914.833,624.833 911.5,625.5C 910.957,625.44 910.624,625.107 910.5,624.5C 914.107,623.511 917.774,623.177 921.5,623.5 Z"/></g>
<g><path style="opacity:1" fill="#2a2b2a" d="M 1093.5,622.5 C 1097.19,623.247 1097.19,624.58 1093.5,626.5C 1092.37,625.192 1092.37,623.858 1093.5,622.5 Z"/></g>
<g><path style="opacity:1" fill="#e7ede8" d="M 1254.5,624.5 C 1256.53,624.338 1258.53,624.505 1260.5,625C 1261.55,626.388 1261.72,627.888 1261,629.5C 1255.1,632.001 1252.93,630.334 1254.5,624.5 Z"/></g>
</svg>
